<?xml version="1.0" encoding="UTF-8"?>
<svg width="42px" height="42px" viewBox="0 0 42 42" version="1.1" xmlns="http://www.w3.org/2000/svg" xmlns:xlink="http://www.w3.org/1999/xlink">
    <title>accessories</title>
    <g id="accessories" stroke="none" stroke-width="1" fill="none" fill-rule="evenodd">
        <g transform="translate(2.400000, 8.400000)" fill-rule="nonzero" id="Path">
            <path d="M16.4091233,24 C18.1282965,24 18.9878831,23.1353712 18.9878831,21.3275109 L18.9878831,16.9912664 C18.9878831,15.1834061 18.1282965,14.3056769 16.4091233,14.3056769 L5.67070563,14.3056769 C3.95153243,14.3056769 3.09194583,15.1834061 3.09194583,16.9912664 L3.09194583,21.3275109 C3.09194583,23.1353712 3.95153243,24 5.67070563,24 L16.4091233,24 Z" fill="#A357D6"></path>
            <path d="M33.4084105,22.1790393 C35.1404134,22.1790393 36,21.30131 36,19.4934498 L36,4.65065502 C36,2.84279476 35.1404134,1.9650655 33.4084105,1.9650655 L24.5046329,1.9650655 C22.7854597,1.9650655 21.9258731,2.84279476 21.9258731,4.65065502 L21.9258731,19.4934498 C21.9258731,21.30131 22.7854597,22.1790393 24.5046329,22.1790393 L33.4084105,22.1790393 Z" fill="#3478F6"></path>
            <path d="M14.8439059,11.3580786 C16.5630791,11.3580786 17.4226657,10.4803493 17.4226657,8.67248908 L17.4226657,2.67248908 C17.4226657,0.864628821 16.5630791,-7.46069873e-15 14.8439059,-7.46069873e-15 L2.56593015,-7.46069873e-15 C0.8595866,-7.46069873e-15 2.13162821e-15,0.864628821 2.13162821e-15,2.67248908 L2.13162821e-15,8.67248908 C2.13162821e-15,10.4803493 0.8595866,11.3580786 2.56593015,11.3580786 L14.8439059,11.3580786 Z" fill="#65C466"></path>
        </g>
    </g>
</svg>