<svg height="42" viewBox="0 0 42 42" width="42" xmlns="http://www.w3.org/2000/svg"><g fill="none" transform="translate(1.220508 4.8)"><path d="m8.03671875 15.8150391c4.41386715 0 8.03671875 3.6386718 8.03671875 8.0367187s-3.6703125 8.0367188-8.03671875 8.0367188c-4.39804687 0-8.03671875-3.6070313-8.03671875-8.0367188 0-4.3980469 3.63867188-8.0367187 8.03671875-8.0367187zm.80378511 1.9500797c-.17992218-.0268352-.33338521.0536702-.40217899.1985799l-.29105058.5635378c-.12700389-.0107341-.24342413-.0161011-.36513619-.0161011-.12700389 0-.24342412.005367-.37042801.0161011l-.29105059-.5581707c-.06879377-.1502768-.22754864-.2307822-.40747081-.203947-.16933853.0322021-.28575876.1610107-.3122179.3381226l-.08466926.617208c-.23284047.0697714-.46568094.1502768-.68793775.2468833l-.44980544-.407894c-.1270039-.1234416-.30163425-.1449098-.46568094-.0536703-.14287938.0805054-.21167315.2415162-.17463035.4239951l.12700389.611841c-.19579766.1395427-.3863035.3005534-.56093385.4669313l-.57151751-.2307822c-.15875486-.0697713-.32280156-.0268351-.44980545.1180746-.10054474.1288086-.11642023.3059205-.02645914.4454632l.32809338.5367026c-.13758754.203947-.25400778.4186281-.35984435.6440432l-.61914397-.0214681c-.17463035-.0107341-.32809339.0912394-.38101168.2576173-.05291828.1610107-.00529182.3327556.13229572.4347291l.48684825.3917929c-.05821011.2361492-.1111284.4776653-.12700389.7299156l-.58739299.1878459c-.16933853.0590373-.26988327.19858-.26988327.3756919 0 .1771118.10054474.3112875.26988327.3703248l.58739299.1932129c.01587549.2468832.06879378.4937664.12700389.7299156l-.48684825.3864259c-.13229572.1073405-.185214.2790854-.13229572.4400962.05291829.1717448.20638133.2737183.38101168.2629842l.61914397-.0322021c.10583657.2254151.22225681.4454632.35984435.6440431l-.33338521.5367027c-.08996109.1502767-.0740856.3273886.03175097.4508302.12700389.1502767.29105059.1878459.45509728.1180746l.56093385-.2361492c.17992218.1717449.37042802.3327556.56622568.4722983l-.12700389.6172081c-.0370428.1717448.02645915.3327556.17992218.423995.15875486.0858725.32809339.0644044.45509728-.0536702l.45509727-.4186281c.22225681.0966065.44980545.1878459.68793775.2522503l.08466926.622575c.02645914.1717449.14287937.3059205.31750972.3381227.17463035.0214681.33338522-.0590373.40217899-.2093141l.29105059-.5581707c.12700389.0107341.24342412.0214681.37042801.0214681.12171206 0 .2381323-.010734.36513619-.0214681l.28575875.5528037c.06879378.1556438.22754864.2361492.41276265.209314.16404669-.0268351.28575875-.1610107.30692607-.3327556l.08996109-.622575c.23284047-.0644044.46568093-.1556438.68793774-.2522503l.44980541.413261c.1270039.1234417.3016343.1449098.465681.0536703.1428794-.0858724.2063813-.2468832.1746303-.4239951l-.1322957-.611841c.1957977-.1395427.3915953-.3005534.5662257-.4722983l.5662257.2415162c.1640467.0644043.3280934.0268351.4498054-.1234416.1058366-.1234416.1217121-.3005535.031751-.4508302l-.3280934-.5367027c.1322957-.1985799.248716-.418628.3598444-.6440431l.6191439.0322021c.1693385.0107341.3228016-.0912394.3757199-.2576172.0582101-.1663778.0052918-.3381227-.1270039-.4454632l-.4868483-.3864259c.0582101-.2361492.1058366-.4830324.1270039-.7352826l.587393-.1878459c.1693385-.0590373.2698833-.193213.2698833-.3703248 0-.1771119-.1005448-.3166546-.2698833-.3756919l-.587393-.1878459c-.0211673-.2522503-.0687938-.4937664-.1270039-.7352826l.4815565-.3864259c.1375875-.1019735.1905058-.2737184.1322957-.4347291-.0529183-.1663779-.2063814-.2683514-.3757199-.2576173l-.6191439.0214681c-.1111284-.2254151-.2275487-.4400962-.3598444-.6440432l.3280934-.5313356c.0899611-.1449097.0740856-.3220216-.031751-.4508302-.121712-.1449097-.2857587-.1878459-.4498054-.1180746l-.5662257.2307822c-.1746304-.1663779-.370428-.3273886-.5662257-.4669313l.1322957-.611841c.031751-.1824789-.0317509-.3434897-.1799222-.4239951-.1640466-.0912395-.3333852-.0751384-.4603891.0536703l-.44980541.407894c-.22225681-.0966065-.45509727-.1771119-.68793774-.2468833l-.08996109-.617208c-.02116732-.1771119-.14287938-.3059205-.3122179-.3381226zm3.06396884 6.5960753c-.2275486 2.1521776-1.94210114 3.7998547-4.12762643 3.7998547-.64031128 0-1.24357976-.1395427-1.77805447-.39716l1.40233463-2.3346564c.14287938.0375691.24871595.0429362.33338521.0429362.64560312 0 1.20124514-.3864259 1.47112841-1.1109745zm-6.67828791-3.88036 1.37058366 2.3775926c-.28046692.3273887-.40747082.6762454-.40747082 1.0358361 0 .3434897.12171207.6708783.40747082 1.003634l-1.41291829 2.3453905c-.95252918-.7782189-1.55579766-1.9911668-1.55579766-3.3651255 0-1.3900599.61914397-2.6191089 1.59813229-3.3973277zm2.51361868 2.7693856c.35455253 0 .64031129.2790853.64031129.6386761 0 .3542237-.28575876.6440432-.64031129.6440432-.33338521 0-.63501945-.2898195-.63501945-.6440432 0-.3595908.29634241-.6386761.63501945-.6386761zm.0370428-3.654945c2.18023347 0 3.89478603 1.6476771 4.12762643 3.7944877h-2.69883265c-.26988327-.7030805-.83081712-1.0841394-1.47112841-1.0841394-.07937743 0-.17463035.0053671-.32809338.0429362l-1.36-2.3722256c.52389105-.2468832 1.10599222-.3810589 1.73042801-.3810589z" fill="#8e8e93"/><path d="m23.9084755 31.3420334c-2.5881639 0-5.0342944-.647041-7.2279211-1.7833081.5207891-.7417299.8995448-1.5308042 1.1836115-2.367223 1.7990896.9311077 3.8506829 1.4834598 6.0285281 1.4834598 3.7086495 0 7.0385433-1.5465858 9.4057663-3.9927163-2.0831563-2.2409711-5.507739-3.692868-9.3899848-3.692868-2.0358118 0-3.9769348.4103187-5.6497724 1.1204856-.8522003-4.7028831-4.9711684-8.3010622-9.87921091-8.3799696.94688922-7.65402127 7.62245831-13.7298938 15.51320181-13.7298938 8.5693475 0 15.6867982 7.11745068 15.6867982 15.6710167 0 8.5693475-7.1016692 15.6710167-15.6710167 15.6710167zm-.0157815-13.0039454c3.0300455 0 5.3185183-2.6355083 5.3185183-5.9180577.0156243-3.10895291-2.3358172-5.8075872-5.3185183-5.8075872-2.9669196 0-5.3025797 2.69863429-5.3025797 5.8075872 0 3.2825494 2.2883157 5.9180577 5.3025797 5.9180577z" fill="#f09a37"/></g></svg>