<?xml version="1.0" encoding="UTF-8"?>
<svg width="42px" height="42px" viewBox="0 0 42 42" version="1.1" xmlns="http://www.w3.org/2000/svg" xmlns:xlink="http://www.w3.org/1999/xlink">
    <title>payment</title>
    <g id="payment" stroke="none" stroke-width="1" fill="none" fill-rule="evenodd">
        <g id="iCloud-Music-Copy-3" transform="translate(3.000000, 7.145455)" fill="#F8CE46" fill-rule="nonzero">
            <path d="M36,7.00884956 L36,5.3840708 C36,1.87964602 34.0884956,0 30.5522124,0 L5.43185841,0 C1.89557522,0 0,1.87964602 0,5.3840708 L0,7.00884956 L36,7.00884956 Z M30.5522124,27.8123894 C34.0884956,27.8123894 36,25.9168142 36,22.4123894 L36,10.8318584 L0,10.8318584 L0,22.4123894 C0,25.9327434 1.89557522,27.8123894 5.43185841,27.8123894 L30.5522124,27.8123894 Z M10.9752212,20.2460177 L7.07256637,20.2460177 C6.13274336,20.2460177 5.51150442,19.6247788 5.51150442,18.7327434 L5.51150442,15.7699115 C5.51150442,14.8778761 6.13274336,14.2566372 7.07256637,14.2566372 L10.9752212,14.2566372 C11.9150442,14.2566372 12.5362832,14.8778761 12.5362832,15.7699115 L12.5362832,18.7327434 C12.5362832,19.6247788 11.9150442,20.2460177 10.9752212,20.2460177 Z" id="payment"></path>
        </g>
    </g>
</svg>