<svg xmlns="http://www.w3.org/2000/svg" xmlns:xlink="http://www.w3.org/1999/xlink" width="24" height="24" viewBox="0 0 24 24">
  <defs>
    <path id="circle-check_24_green-a" d="M12.002989,23.9999998 C5.37547408,24.0013282 0.00132867189,18.6305039 2.46377496e-07,12.0029891 C-0.00132817913,5.37547432 5.36949616,0.00132897972 11.997011,5.54221064e-07 C18.6245259,-0.00199208402 23.9986713,5.3694964 23.9999998,11.9970112 C24.0013282,18.624526 18.6305038,23.9980071 12.002989,23.9999998 Z M12.0027885,22.9999998 C18.0779652,22.9981732 23.0012175,18.0724732 22.9999998,11.9972116 C22.9987821,5.92201302 18.072495,0.998173936 11.9972115,1.00000053 C5.92223408,1.00121821 0.998782451,5.92730586 1.00000023,12.0027887 C1.0012179,18.077766 5.92730561,23.0012175 12.0027885,22.9999998 Z M9.80099309,15.7686101 L17.4489852,7.16775053 C17.6324816,6.96139231 17.9485211,6.94285908 18.1548793,7.1263554 C18.3612375,7.30985171 18.3797708,7.62589125 18.1962745,7.83224947 L10.1933616,16.8322495 C10.0012472,17.0482995 9.6664796,17.0568697 9.46356212,16.8509326 L5.64384515,12.9743746 C5.4500304,12.7776757 5.45236846,12.4611019 5.64906736,12.2672871 C5.84576625,12.0734724 6.16234011,12.0758105 6.35615485,12.2725094 L9.80099309,15.7686101 Z"/>
    <rect id="circle-check_24_green-c" width="24" height="24"/>
  </defs>
  <g fill="none" fill-rule="evenodd">
    <mask id="circle-check_24_green-b" fill="#fff">
      <use xlink:href="#circle-check_24_green-a"/>
    </mask>
    <g mask="url(#circle-check_24_green-b)">
      <use fill="#1C9A62" xlink:href="#circle-check_24_green-c"/>
      <rect width="23" height="23" x=".5" y=".5" stroke="#1C9A62"/>
    </g>
  </g>
</svg>
