<svg height="42" viewBox="0 0 42 42" width="42" xmlns="http://www.w3.org/2000/svg"><path d="m25.727349 35.5826342c.6459731 0 1.1744966-.5285235 1.1744966-1.1891778 0-.6606544-.5285235-1.1891779-1.1744966-1.1891779h-.0880873v-2.8334731h9.4693792c2.114094 0 3.3913591-1.2772651 3.3913591-3.3913591v-17.60276845c0-2.11409396-1.2772651-3.37667785-3.3913591-3.37667785h-28.23196305c-2.09941275 0-3.37667785 1.26258389-3.37667785 3.37667785v17.60276845c0 2.114094 1.2772651 3.3913591 3.37667785 3.3913591h9.48406045v2.8334731h-.0880873c-.6459731 0-1.1891778.5285235-1.1891778 1.1891779 0 .6606543.5432047 1.1891778 1.1891778 1.1891778zm9.3519295-7.5755033h-28.15855702c-.64597316 0-1.05704698-.4110739-1.05704698-1.057047v-17.52936242c0-.66065437.41107382-1.05704698 1.05704698-1.05704698h28.15855702c.6459732 0 1.057047.39639261 1.057047 1.05704698v17.52936242c0 .6459731-.4110738 1.057047-1.057047 1.057047z" fill="#77c5f5"/></svg>