<?xml version="1.0" encoding="UTF-8"?>
<svg width="42px" height="42px" viewBox="0 0 42 42" version="1.1" xmlns="http://www.w3.org/2000/svg" xmlns:xlink="http://www.w3.org/1999/xlink">
    <title>apple-pay-cash</title>
    <g id="apple-pay-cash" stroke="none" stroke-width="1" fill="none" fill-rule="evenodd">
        <g id="Apple-Card-Cash-Icon" transform="translate(3.600000, 3.600000)">
            <rect id="Rectangle" fill="#8E8E93" x="0" y="0" width="34.8" height="34.8" rx="2.59701493"></rect>
            <g id="Apple-Cash-Icon" transform="translate(12.465672, 7.011940)" fill="#FFFFFF">
                <path d="M6.2151289,0 L6.21596847,2.58512129 C8.37976085,3.01984097 9.834613,4.72273296 9.90192888,7.0323843 L7.42862386,7.0323843 C7.30670038,5.78794814 6.38356541,4.97590082 5.11207762,4.97590082 C3.79704573,4.97590082 2.92616368,5.74576387 2.92616368,6.93746968 C2.92616368,7.89716197 3.52707229,8.45610363 4.99886295,8.84630819 L6.51419771,9.23651275 C9.03975565,9.89036903 10.1283582,11.2086277 10.1283582,13.5604011 C10.1283582,16.1973019 8.6645453,17.9598137 6.21562747,18.378657 L6.2151289,21.2772891 L3.91322931,21.2772891 L3.91289662,18.3848839 C1.56094766,17.990424 0.0832538513,16.3238971 0,13.8767832 L2.54297558,13.8767832 C2.66489906,15.1423115 3.69253988,15.9543588 5.17303936,15.9543588 C6.54032417,15.9543588 7.50700325,15.1212193 7.50700325,13.9400596 C7.50700325,12.938183 6.87996817,12.3581492 5.33850695,11.9468525 L3.7012487,11.5144637 C1.41082892,10.9238838 0.287391076,9.50016448 0.287391076,7.19057534 C0.287391076,4.75979164 1.68765627,3.03360179 3.91293366,2.58919757 L3.91322931,0 L6.2151289,0 Z" id="Rectangle-2"></path>
            </g>
        </g>
        <g id="Apple-Card-Cash-Icon" transform="translate(3.600000, 3.600000)">
            <rect id="Rectangle" fill="#8E8E93" x="0" y="0" width="34.8" height="34.8" rx="2.59701493"></rect>
            <g id="Apple-Cash-Icon" transform="translate(12.465672, 7.011940)" fill="#FFFFFF">
                <path d="M6.2151289,0 L6.21596847,2.58512129 C8.37976085,3.01984097 9.834613,4.72273296 9.90192888,7.0323843 L7.42862386,7.0323843 C7.30670038,5.78794814 6.38356541,4.97590082 5.11207762,4.97590082 C3.79704573,4.97590082 2.92616368,5.74576387 2.92616368,6.93746968 C2.92616368,7.89716197 3.52707229,8.45610363 4.99886295,8.84630819 L6.51419771,9.23651275 C9.03975565,9.89036903 10.1283582,11.2086277 10.1283582,13.5604011 C10.1283582,16.1973019 8.6645453,17.9598137 6.21562747,18.378657 L6.2151289,21.2772891 L3.91322931,21.2772891 L3.91289662,18.3848839 C1.56094766,17.990424 0.0832538513,16.3238971 0,13.8767832 L2.54297558,13.8767832 C2.66489906,15.1423115 3.69253988,15.9543588 5.17303936,15.9543588 C6.54032417,15.9543588 7.50700325,15.1212193 7.50700325,13.9400596 C7.50700325,12.938183 6.87996817,12.3581492 5.33850695,11.9468525 L3.7012487,11.5144637 C1.41082892,10.9238838 0.287391076,9.50016448 0.287391076,7.19057534 C0.287391076,4.75979164 1.68765627,3.03360179 3.91293366,2.58919757 L3.91322931,0 L6.2151289,0 Z" id="Rectangle-2"></path>
            </g>
        </g>
    </g>
</svg>