<?xml version="1.0" encoding="UTF-8"?>
<svg width="42px" height="42px" viewBox="0 0 42 42" version="1.1" xmlns="http://www.w3.org/2000/svg" xmlns:xlink="http://www.w3.org/1999/xlink">
    <title>password</title>
    <g id="password" stroke="none" stroke-width="1" fill="none" fill-rule="evenodd">
        <g id="reset-password" transform="translate(3.600000, 5.280000)" fill-rule="nonzero">
            <path d="M7.02833127,17.7267001 C7.94227178,17.7267001 8.68887108,16.9731138 8.68887108,16.063613 C8.68887108,15.1411193 7.94227178,14.4005259 7.02833127,14.4005259 C6.11439076,14.4005259 5.38066387,15.1411193 5.38066387,16.063613 C5.38066387,16.9731138 6.11439076,17.7267001 7.02833127,17.7267001 Z M12.2030367,17.7267001 C13.1169772,17.7267001 13.8635765,16.9731138 13.8635765,16.063613 C13.8635765,15.1411193 13.1169772,14.4005259 12.2030367,14.4005259 C11.2762238,14.4005259 10.5424969,15.1411193 10.5424969,16.063613 C10.5424969,16.9731138 11.2762238,17.7267001 12.2030367,17.7267001 Z M17.3648697,17.7267001 C18.2659379,17.7267001 19.0125372,16.9731138 19.0125372,16.063613 C19.0125372,15.1411193 18.2659379,14.4005259 17.3648697,14.4005259 C16.4509292,14.4005259 15.7043299,15.1411193 15.7043299,16.063613 C15.7043299,16.9731138 16.4509292,17.7267001 17.3648697,17.7267001 Z" id="Password-with-Pencil" fill="#8E8E93"></path>
            <path d="M29.1045,25.1586207 C31.5373839,25.1586207 32.8632413,23.8723267 32.8632413,21.4166747 L32.8632413,10.6585798 L30.7907846,12.7504316 L30.7907846,21.5206176 C30.7907846,22.5990257 30.1857817,23.2096905 29.1173724,23.2096905 L3.74586886,23.2096905 C2.67745953,23.2096905 2.07245666,22.5990257 2.07245666,21.5206176 L2.07245666,10.5936155 C2.07245666,9.51520743 2.67745953,8.90454263 3.74586886,8.90454263 L24.586287,8.90454263 L26.5300197,6.95561241 L3.77161367,6.95561241 C1.33872977,6.95561241 0,8.24190635 0,10.6975584 L0,21.4166747 C0,23.8723267 1.33872977,25.1586207 3.77161367,25.1586207 L29.1045,25.1586207 Z" id="Path" fill="#C7C7CC"></path>
            <path d="M37.085389,3.14870204 L38.0508191,2.16124406 C38.5142256,1.68050794 38.5142256,1.0438574 38.0636915,0.60209988 L37.7547539,0.290271044 C37.342837,-0.125500737 36.6992169,-0.0865221324 36.2615553,0.355235385 L35.2961252,1.31670763 L37.085389,3.14870204 Z" id="Path" fill="#8E8E93"></path>
            <path d="M22.2949996,16.6093134 L24.9209695,15.4269624 L36.1328313,4.12316715 L34.330695,2.31715848 L23.1317057,13.6209538 L21.8959551,16.1805488 C21.7929759,16.4014276 22.0504239,16.7132564 22.2949996,16.6093134 Z" id="Path" fill="#3478F6"></path>
        </g>
    </g>
</svg>