<svg height="42" viewBox="0 0 42 42" width="42" xmlns="http://www.w3.org/2000/svg"><path d="m16.0673866 26.27473c1.0868251 0 1.8799136-.7930885 1.8799136-1.8799136v-22.42678184c0-1.08682506-.7930885-1.96803456-1.9092872-1.96803456-.7490281 0-1.263067.32311015-2.0855292 1.07213823l-6.13909287 5.77192225c-.08812095.07343412-.20561555.1174946-.33779698.1174946h-4.17105831c-2.14427646 0-3.30453564 1.18963282-3.30453564 3.46609072v5.4634989c0 2.2617711 1.16025918 3.4660907 3.30453564 3.4660907h4.17105831c.13218143 0 .24967603.0293737.33779698.1174946l6.13909287 5.8012959c.7343413.7049676 1.3511879.9987041 2.1149028.9987041zm12.9831534-2.7023758c.6609071.4112311 1.4686825.2643629 1.923974-.4112311 1.9239741-2.7023758 3.025486-6.3153348 3.025486-10.0311015 0-3.71576674-1.1015119-7.35809935-3.025486-10.03110151-.4552915-.67559396-1.2630669-.83714903-1.923974-.41123111-.6902808.44060476-.7930886 1.29244061-.2790497 2.05615551 1.5714903 2.29114471 2.4673866 5.27257021 2.4673866 8.38617711 0 3.0989201-.92527 6.0803456-2.4673866 8.3861771-.4993521.7637149-.4112311 1.6155508.2790497 2.0561555zm-5.8600432-3.9213823c.6168466.3965443 1.4393088.2643629 1.8799136-.3818574 1.174946-1.5714903 1.8799136-3.8185745 1.8799136-6.1390929s-.7049676-4.55291577-1.8799136-6.1537797c-.4406048-.63153348-1.263067-.77840173-1.8799136-.3524838-.7049676.4699784-.8371491 1.32181425-.2790497 2.14427646.8224622 1.16025918 1.2777538 2.71706264 1.2777538 4.36198704 0 1.6302376-.4699784 3.187041-1.2777538 4.361987-.5580994.8371491-.4259179 1.6742981.2790497 2.1589633z" fill="#ff2d51" transform="translate(4.027344 7.960938)"/></svg>